<svg width="12" height="12" viewBox="0 0 12 12" fill="none" xmlns="http://www.w3.org/2000/svg">
  <path fill-rule="evenodd" clip-rule="evenodd"
    d="M9.0861 11.0298H2.91299C2.40817 11.0298 1.99846 10.62 1.99846 10.1152V5.08604C1.99846 4.58122 2.40817 4.17151 2.91299 4.17151H9.08519C9.59001 4.17151 9.99972 4.58122 9.99972 5.08604V10.1152C9.99972 10.62 9.59001 11.0298 9.0861 11.0298Z"
    stroke="currentColor" stroke-width="1.2" stroke-linecap="round" stroke-linejoin="round" />
  <path d="M5.99985 4.17151V10.5706" stroke="currentColor" stroke-width="1.2" stroke-linecap="round"
    stroke-linejoin="round" />
  <path fill-rule="evenodd" clip-rule="evenodd"
    d="M6.06259 4.17154C6.58845 4.17154 7.67492 4.00144 8.36539 3.28261C8.87387 2.75401 8.87387 1.89618 8.36539 1.36667C7.85691 0.838065 7.03291 0.838065 6.52443 1.36667C5.74616 2.17694 6.06259 4.17154 6.06259 4.17154Z"
    stroke="currentColor" stroke-width="1.2" stroke-linecap="round" stroke-linejoin="round" />
  <path fill-rule="evenodd" clip-rule="evenodd"
    d="M5.936 4.17152C5.41015 4.17152 4.32368 4.00142 3.63321 3.28259C3.12473 2.75399 3.12473 1.89616 3.63321 1.36664C4.14169 0.837127 4.96568 0.838041 5.47416 1.36664C6.25243 2.17692 5.936 4.17152 5.936 4.17152Z"
    stroke="currentColor" stroke-width="1.2" stroke-linecap="round" stroke-linejoin="round" />
</svg>