<svg width="22" height="22" viewBox="0 0 22 22" fill="none" xmlns="http://www.w3.org/2000/svg">
  <path fill-rule="evenodd" clip-rule="evenodd"
    d="M18.4678 9.74981C18.4678 9.90867 18.4242 10.0675 18.3361 10.2099C16.0571 13.9144 14.1043 16.6207 11.1318 20.1964C10.847 20.5384 10.4535 20.5613 10.1801 20.469C9.90607 20.3767 9.60768 20.1198 9.58907 19.6761C9.50855 17.7852 9.47187 15.8947 9.4959 14.0027C9.5 13.6804 9.23917 13.4165 8.91679 13.4179C7.49522 13.4239 6.07381 13.4094 4.65238 13.3849C4.32966 13.3792 4.04415 13.2067 3.89031 12.9248C3.73717 12.645 3.74576 12.3158 3.9132 12.0439C6.19228 8.34015 8.14506 5.63316 11.1175 2.05748C11.4016 1.71544 11.7959 1.69254 12.0692 1.78485C12.3426 1.87715 12.6417 2.13404 12.6603 2.57769C12.7408 4.46916 12.7776 6.36017 12.7535 8.25271C12.7494 8.57446 13.0092 8.83806 13.331 8.8372C14.7534 8.83343 16.1754 8.8446 17.5977 8.86967C17.9204 8.87539 18.2052 9.04713 18.359 9.32906C18.432 9.46215 18.4678 9.60598 18.4678 9.74981Z"
    fill="currentColor" />
</svg>